0
SECTION
2
HEADER
9
$INSUNITS
70
4
9
$ACADVER
1
AC1014
9
$HANDSEED
5
FFFF
0
ENDSEC
0
SECTION
2
TABLES
0
TABLE
2
VPORT
5
8
100
AcDbSymbolTable
0
ENDTAB
0
TABLE
2
LTYPE
5
5
100
AcDbSymbolTable
0
LTYPE
5
14
100
AcDbSymbolTableRecord
100
AcDbLinetypeTableRecord
2
BYBLOCK
70
0
0
LTYPE
5
15
100
AcDbSymbolTableRecord
100
AcDbLinetypeTableRecord
2
BYLAYER
70
0
0
ENDTAB
0
TABLE
2
LAYER
5
2
100
AcDbSymbolTable
70
2
0
LAYER
5
50
100
AcDbSymbolTableRecord
100
AcDbLayerTableRecord
2
0
70
0
6
CONTINUOUS
0
ENDTAB
0
TABLE
2
STYLE
5
3
100
AcDbSymbolTable
70
1
0
STYLE
5
11
100
AcDbSymbolTableRecord
100
AcDbTextStyleTableRecord
2
STANDARD
70
0
0
ENDTAB
0
TABLE
2
VIEW
5
6
100
AcDbSymbolTable
70
0
0
ENDTAB
0
TABLE
2
UCS
5
7
100
AcDbSymbolTable
70
0
0
ENDTAB
0
TABLE
2
APPID
5
9
100
AcDbSymbolTable
70
2
0
APPID
5
12
100
AcDbSymbolTableRecord
100
AcDbRegAppTableRecord
2
ACAD
70
0
0
ENDTAB
0
TABLE
2
DIMSTYLE
5
A
100
AcDbSymbolTable
70
1
0
ENDTAB
0
TABLE
2
BLOCK_RECORD
5
1
100
AcDbSymbolTable
70
1
0
BLOCK_RECORD
5
1F
100
AcDbSymbolTableRecord
100
AcDbBlockTableRecord
2
*MODEL_SPACE
0
BLOCK_RECORD
5
1B
100
AcDbSymbolTableRecord
100
AcDbBlockTableRecord
2
*PAPER_SPACE
0
ENDTAB
0
ENDSEC
0
SECTION
2
BLOCKS
0
BLOCK
5
20
100
AcDbEntity
100
AcDbBlockBegin
2
*MODEL_SPACE
0
ENDBLK
5
21
100
AcDbEntity
100
AcDbBlockEnd
0
BLOCK
5
1C
100
AcDbEntity
100
AcDbBlockBegin
2
*PAPER_SPACE
0
ENDBLK
5
1D
100
AcDbEntity
100
AcDbBlockEnd
0
ENDSEC
0
SECTION
2
ENTITIES
0
LINE
5
100
100
AcDbEntity
8
0
100
AcDbLine
10
0
20
0
30
0
11
0
21
590
31
0
0
ARC
5
101
100
AcDbEntity
8
0
100
AcDbCircle
10
-250
20
590
30
0
40
250
210
0
220
0
230
1
100
AcDbArc
50
0
51
90
0
LINE
5
102
100
AcDbEntity
8
0
100
AcDbLine
10
-250
20
840
30
0
11
-750
21
840
31
0
0
ARC
5
103
100
AcDbEntity
8
0
100
AcDbCircle
10
-750
20
690
30
0
40
150
210
0
220
-0
230
1
100
AcDbArc
50
90
51
270
0
LINE
5
104
100
AcDbEntity
8
0
100
AcDbLine
10
-750
20
540
30
0
11
-400
21
540
31
0
0
ARC
5
105
100
AcDbEntity
8
0
100
AcDbCircle
10
-400
20
390
30
0
40
150
210
0
220
0
230
1
100
AcDbArc
50
-90
51
90
0
LINE
5
106
100
AcDbEntity
8
0
100
AcDbLine
10
-400
20
240
30
0
11
-900
21
240
31
0
0
ARC
5
107
100
AcDbEntity
8
0
100
AcDbCircle
10
-900
20
540
30
0
40
300
210
0
220
0
230
1
100
AcDbArc
50
180
51
270
0
LINE
5
108
100
AcDbEntity
8
0
100
AcDbLine
10
-1200
20
540
30
0
11
-1200
21
840
31
0
0
LINE
5
109
100
AcDbEntity
8
0
100
AcDbLine
10
-1200
20
840
30
0
11
-1500
21
840.00000000000045
31
0
0
LINE
5
110
100
AcDbEntity
8
0
100
AcDbLine
10
-1500
20
840.00000000000045
30
0
11
-1500
21
240.00000000000023
31
0
0
LINE
5
111
100
AcDbEntity
8
0
100
AcDbLine
10
-1500
20
240.00000000000023
30
0
11
-1800
21
240.00000000000026
31
0
0
LINE
5
112
100
AcDbEntity
8
0
100
AcDbLine
10
-1800
20
240.00000000000026
30
0
11
-1800
21
1040.0000000000002
31
0
0
LINE
5
113
100
AcDbEntity
8
0
100
AcDbLine
10
5
20
0
30
0
11
5
21
590
31
0
0
ARC
5
114
100
AcDbEntity
8
0
100
AcDbCircle
10
-250
20
590
30
0
40
255
210
0
220
0
230
1
100
AcDbArc
50
0
51
90
0
LINE
5
115
100
AcDbEntity
8
0
100
AcDbLine
10
-250
20
845
30
0
11
-750
21
845
31
0
0
ARC
5
116
100
AcDbEntity
8
0
100
AcDbCircle
10
-750
20
690
30
0
40
155
210
0
220
-0
230
1
100
AcDbArc
50
90
51
270
0
LINE
5
117
100
AcDbEntity
8
0
100
AcDbLine
10
-750
20
535
30
0
11
-400
21
535
31
0
0
ARC
5
118
100
AcDbEntity
8
0
100
AcDbCircle
10
-400
20
390
30
0
40
145
210
0
220
0
230
1
100
AcDbArc
50
-90
51
90
0
LINE
5
119
100
AcDbEntity
8
0
100
AcDbLine
10
-400
20
245
30
0
11
-900
21
245
31
0
0
ARC
5
120
100
AcDbEntity
8
0
100
AcDbCircle
10
-900
20
540
30
0
40
295
210
0
220
0
230
1
100
AcDbArc
50
180
51
270
0
LINE
5
121
100
AcDbEntity
8
0
100
AcDbLine
10
-1195
20
540
30
0
11
-1195
21
845
31
0
0
LINE
5
122
100
AcDbEntity
8
0
100
AcDbLine
10
-1195
20
845
30
0
11
-1505
21
845.00000000000045
31
0
0
LINE
5
123
100
AcDbEntity
8
0
100
AcDbLine
10
-1505
20
845.00000000000045
30
0
11
-1505
21
245.00000000000023
31
0
0
LINE
5
124
100
AcDbEntity
8
0
100
AcDbLine
10
-1505
20
245.00000000000023
30
0
11
-1795
21
245.00000000000026
31
0
0
LINE
5
125
100
AcDbEntity
8
0
100
AcDbLine
10
-1795
20
245.00000000000026
30
0
11
-1795
21
1040.0000000000002
31
0
0
LINE
5
126
100
AcDbEntity
8
0
100
AcDbLine
10
-5
20
0
30
0
11
-5
21
590
31
0
0
ARC
5
127
100
AcDbEntity
8
0
100
AcDbCircle
10
-250
20
590
30
0
40
245
210
0
220
0
230
1
100
AcDbArc
50
0
51
90
0
LINE
5
128
100
AcDbEntity
8
0
100
AcDbLine
10
-250
20
835
30
0
11
-750
21
835
31
0
0
ARC
5
129
100
AcDbEntity
8
0
100
AcDbCircle
10
-750
20
690
30
0
40
145
210
0
220
-0
230
1
100
AcDbArc
50
90
51
270
0
LINE
5
130
100
AcDbEntity
8
0
100
AcDbLine
10
-750
20
545
30
0
11
-400
21
545
31
0
0
ARC
5
131
100
AcDbEntity
8
0
100
AcDbCircle
10
-400
20
390
30
0
40
155
210
0
220
0
230
1
100
AcDbArc
50
-90
51
90
0
LINE
5
132
100
AcDbEntity
8
0
100
AcDbLine
10
-400
20
235
30
0
11
-900
21
235
31
0
0
ARC
5
133
100
AcDbEntity
8
0
100
AcDbCircle
10
-900
20
540
30
0
40
305
210
0
220
0
230
1
100
AcDbArc
50
180
51
270
0
LINE
5
134
100
AcDbEntity
8
0
100
AcDbLine
10
-1205
20
540
30
0
11
-1205
21
835
31
0
0
LINE
5
135
100
AcDbEntity
8
0
100
AcDbLine
10
-1205
20
835
30
0
11
-1495
21
835.00000000000045
31
0
0
LINE
5
136
100
AcDbEntity
8
0
100
AcDbLine
10
-1495
20
835.00000000000045
30
0
11
-1495
21
235.00000000000023
31
0
0
LINE
5
137
100
AcDbEntity
8
0
100
AcDbLine
10
-1495
20
235.00000000000023
30
0
11
-1805
21
235.00000000000026
31
0
0
LINE
5
138
100
AcDbEntity
8
0
100
AcDbLine
10
-1805
20
235.00000000000026
30
0
11
-1805
21
1040.0000000000002
31
0
0
LWPOLYLINE
5
139
100
AcDbEntity
8
0
100
AcDbPolyline
90
28
70
1
43
0.0
10
100
20
590
10
100
20
0
10
-100
20
0
10
-100
20
590
42
0.41421356237309503
10
-250
20
740
10
-750
20
740
42
0.99999999999999989
10
-750
20
640
10
-400
20
640
42
-0.99999999999999989
10
-400
20
140
10
-900
20
140
42
-0.41421356237309503
10
-1300
20
540
10
-1300
20
740.00000000000011
10
-1400
20
740.00000000000023
10
-1400
20
140.00000000000023
10
-1900
20
140.00000000000028
10
-1900
20
1040.0000000000002
10
-1700
20
1040.0000000000002
10
-1700
20
340.00000000000023
10
-1600
20
340.00000000000023
10
-1600
20
940.00000000000057
10
-1100
20
939.99999999999989
10
-1100
20
540
42
0.41421356237309503
10
-900
20
340
10
-400
20
340
42
0.99999999999999989
10
-400
20
440
10
-750
20
440
42
-0.99999999999999989
10
-750
20
940
10
-250.00000000000003
20
940
42
-0.41421356237309503
0
LWPOLYLINE
5
140
100
AcDbEntity
8
0
100
AcDbPolyline
90
4
70
1
43
0.0
10
-1920
20
0
10
120
20
0
10
120
20
1040.0000000000002
10
-1920
20
1040.0000000000002
0
ENDSEC
0
SECTION
2
OBJECTS
0
DICTIONARY
5
C
100
AcDbDictionary
3
ACAD_GROUP
350
D
3
ACAD_MLINESTYLE
350
17
0
DICTIONARY
5
D
100
AcDbDictionary
0
DICTIONARY
5
1A
330
C
100
AcDbDictionary
0
DICTIONARY
5
17
100
AcDbDictionary
0
ENDSEC
0
EOF
